<svg width="100%" height="100%" viewBox="0 0 92 75" fill="none" xmlns="http://www.w3.org/2000/svg">
    <path fill-rule="evenodd" clip-rule="evenodd"
          d="M18.61 7.64C18.61 6.44706 19.5771 5.48 20.77 5.48H71.24C72.4329 5.48 73.4 6.44707 73.4 7.64V18.1548C73.3934 18.229 73.39 18.3041 73.39 18.38V54.28C73.39 54.8521 73.1631 55.4008 72.759 55.8057C72.3556 56.21 71.8085 56.438 71.2374 56.44H20.7626C20.1915 56.438 19.6444 56.21 19.241 55.8057C18.8369 55.4008 18.61 54.8521 18.61 54.28V18.38V7.64ZM13.61 15.88V7.64C13.61 3.68564 16.8156 0.48 20.77 0.48H71.24C75.1944 0.48 78.4 3.68564 78.4 7.64V15.88H89.49C90.8707 15.88 91.99 16.9993 91.99 18.38V57.27L91.99 57.2751C91.9808 61.8345 90.1678 66.205 86.9471 69.4323C83.7264 72.6596 79.3596 74.4815 74.8002 74.5L74.79 74.5H17.21L17.1999 74.5C12.6445 74.4815 8.28116 72.6629 5.0611 69.4406C1.84105 66.2184 0.0254085 61.8538 0.0100145 57.2985L0.0100002 57.29V18.38C0.0100002 16.9993 1.12929 15.88 2.51 15.88H13.61ZM13.61 20.88H5.01V57.2856C5.02199 60.5199 6.31154 63.6185 8.59784 65.9063C10.884 68.194 13.9815 69.4857 17.2157 69.5H74.7843C78.0213 69.4857 81.1213 68.1917 83.408 65.9004C85.6949 63.6089 86.9825 60.5058 86.99 57.2685L86.99 57.2649L86.99 20.88H78.4V54.56C78.4 58.5144 75.1944 61.72 71.24 61.72H20.77C16.8156 61.72 13.61 58.5144 13.61 54.56V54.28V20.88Z"
          fill="#8688C1"></path>
</svg>
