<svg version="1.2" xmlns="http://www.w3.org/2000/svg" viewBox="0 0 54 24" width="92" height="41">
	<title>love_seat-svg</title>
	<style>
		.s0 { fill: #ad3532 } 
	</style>
	<path id="Layer" fill-rule="evenodd" class="s0" d="m53 15.6c0 5-4 8.4-9 8.4h-34c-5 0-9-3.4-9-8.4c0-1 0.5-1.7 1.2-2.1v-10.5c0-1.7 1.3-3 3-3h44c1.7 0 3 1.3 3 3v10.8c0.5 0.4 0.8 1 0.8 1.8zm-48.9-12.6v10c0 0 3.1 0 3.5 0c0.4 0 0.4 0.3 0.4 0.3c0 1.7 1.3 3 3 3h32c1.7 0 3-1.3 3-3c0 0 0.1-0.3 0.4-0.3c0.3 0 3.8 0 3.8 0v-10c0-0.6-0.4-1-1-1h-44c-0.6 0-1 0.5-1.1 1zm46.9 12.6c0-0.5-0.6-0.6-1-0.6h-2.2c-0.7 1.9-2.5 3.3-4.7 3.3h-32c-2.2 0-4-1.4-4.7-3.3h-2.4c-0.4 0-1 0.1-1 0.6c0 3.7 2.9 6.4 7 6.4h34c4.1 0 7-2.7 7-6.4z" />
</svg>