<svg width="100%" height="100%" viewBox="0 0 154 84" fill="none" xmlns="http://www.w3.org/2000/svg">
    <path fill="#bd8c32" fill-rule="evenodd" clip-rule="evenodd"
          d="M22.17 5.71C20.3481 5.71 18.16 7.61662 18.16 11V29.17H18.29V31.67V58.67V58.6787L18.2899 58.6875C18.2665 62.0406 20.4591 63.99 22.27 63.99H74.72V5.71H22.17ZM79.72 5.71V63.99H132.403C134.192 63.8921 136.247 61.9669 136.29 58.7911V58.5847V58.57V31.57V29.07V10.95C136.29 7.63048 134.104 5.71 132.28 5.71H79.72ZM13.16 11V29.17H3.33H0.83V31.67V59.74C0.83 72.3519 9.57837 83.231 21.0572 83.29H21.07H133.4C144.943 83.29 153.578 72.3033 153.61 59.7465L153.61 59.74V31.57V29.07H151.11H141.29V10.95C141.29 5.70952 137.636 0.71 132.28 0.71H22.17C16.7919 0.71 13.16 5.72338 13.16 11ZM5.83 34.17H13.16V58.83C13.16 64.0556 16.7994 69.07 22.17 69.07H132.28C137.638 69.07 141.29 64.0582 141.29 58.83V58.7935C141.291 58.7143 141.291 58.635 141.29 58.5557V34.07H148.61L148.61 59.7335L148.61 59.7392C148.58 70.3995 141.395 78.29 133.4 78.29H21.0765C13.0778 78.2448 5.83 70.3853 5.83 59.74V34.17Z"></path>
</svg>
